<svg xmlns="http://www.w3.org/2000/svg" width="960" height="600" viewBox="0 0 960 600" role="img" aria-labelledby="title">
  <title id="title">UI preview based on implemented login screen layout</title>
  <rect width="960" height="600" fill="#f8fafc"/>
  <rect x="0" y="0" width="430" height="600" fill="#2563eb"/>
  <text x="50" y="80" font-family="Arial" font-size="28" font-weight="700" fill="#fff">TransitionIQ</text>
  <text x="50" y="230" font-family="Arial" font-size="42" font-weight="700" fill="#fff">Navigate coverage</text>
  <text x="50" y="278" font-family="Arial" font-size="42" font-weight="700" fill="#fff">transitions</text>
  <text x="50" y="330" font-family="Arial" font-size="18" fill="#dbeafe">COBRA estimates, plan samples, stipends, and review.</text>
  <rect x="560" y="110" width="280" height="48" rx="8" fill="#fff" stroke="#cbd5e1"/>
  <rect x="560" y="178" width="280" height="48" rx="8" fill="#fff" stroke="#cbd5e1"/>
  <rect x="560" y="246" width="280" height="48" rx="8" fill="#2563eb"/>
  <text x="560" y="80" font-family="Arial" font-size="26" font-weight="700" fill="#0f172a">Welcome back</text>
  <text x="665" y="277" font-family="Arial" font-size="15" font-weight="700" fill="#fff">Sign In</text>
  <rect x="560" y="360" width="130" height="75" rx="10" fill="#2563eb"/>
  <rect x="710" y="360" width="130" height="75" rx="10" fill="#0f766e"/>
  <rect x="560" y="455" width="130" height="75" rx="10" fill="#334155"/>
  <rect x="710" y="455" width="130" height="75" rx="10" fill="#1f2937"/>
  <text x="585" y="403" font-family="Arial" font-size="14" font-weight="700" fill="#fff">Employer</text>
  <text x="735" y="403" font-family="Arial" font-size="14" font-weight="700" fill="#fff">Employee</text>
  <text x="585" y="498" font-family="Arial" font-size="14" font-weight="700" fill="#fff">Consultant</text>
  <text x="747" y="498" font-family="Arial" font-size="14" font-weight="700" fill="#fff">Admin</text>
</svg>
