<svg xmlns="http://www.w3.org/2000/svg" width="960" height="600" viewBox="0 0 960 600" role="img" aria-labelledby="title">
  <title id="title">UI preview based on implemented employer dashboard layout</title>
  <rect width="960" height="600" fill="#f8fafc"/>
  <rect x="0" y="0" width="210" height="600" fill="#0f172a"/>
  <text x="28" y="52" font-family="Arial" font-size="22" font-weight="700" fill="#fff">TransitionIQ</text>
  <text x="260" y="65" font-family="Arial" font-size="30" font-weight="700" fill="#0f172a">Employer Dashboard</text>
  <g fill="#fff" stroke="#e2e8f0">
    <rect x="260" y="105" width="150" height="95" rx="10"/><rect x="430" y="105" width="150" height="95" rx="10"/><rect x="600" y="105" width="150" height="95" rx="10"/><rect x="770" y="105" width="150" height="95" rx="10"/>
    <rect x="260" y="230" width="330" height="260" rx="10"/><rect x="620" y="230" width="300" height="260" rx="10"/>
  </g>
  <rect x="295" y="405" width="250" height="20" rx="10" fill="#2563eb"/>
  <rect x="660" y="280" width="220" height="28" rx="6" fill="#dbeafe"/>
  <rect x="660" y="330" width="180" height="28" rx="6" fill="#dcfce7"/>
  <rect x="660" y="380" width="205" height="28" rx="6" fill="#fef3c7"/>
</svg>
